HIERARCHY
ROOT Hips
{
  OFFSET 5.84602e-005 68.8428 3.50346
  CHANNELS 6 Xposition Yposition Zposition Zrotation Xrotation Yrotation
  JOINT Spine
  {
    OFFSET 0 8.597 -4.6522
    CHANNELS 3 Zrotation Xrotation Yrotation
    JOINT Spine1
    {
      OFFSET 0 7.8454 0.4098
      CHANNELS 3 Zrotation Xrotation Yrotation
      JOINT Spine2
      {
        OFFSET 0 9.7078 -2.1609
        CHANNELS 3 Zrotation Xrotation Yrotation
        JOINT Neck
        {
          OFFSET 0 21.8761 -0.4549
          CHANNELS 3 Zrotation Xrotation Yrotation
          JOINT Head
          {
            OFFSET 0 12.3537 3.3602
            CHANNELS 3 Zrotation Xrotation Yrotation
            End Site
            {
              OFFSET 0.0001 18.9506 0.5657
            }
          }
        }
        JOINT LeftShoulder
        {
          OFFSET 2.2086 21.1115 7.2329
          CHANNELS 3 Zrotation Xrotation Yrotation
          JOINT LeftArm
          {
            OFFSET 13.1193 3.0282 -4.8998
            CHANNELS 3 Zrotation Xrotation Yrotation
            JOINT LeftForeArm
            {
              OFFSET 27.4081 -0.0973053 -0.2375
              CHANNELS 3 Zrotation Xrotation Yrotation
              JOINT LeftHand
              {
                OFFSET 22.8641 0.0662994 -0.1369
                CHANNELS 3 Zrotation Xrotation Yrotation
                JOINT LeftHandIndex1
                {
                  OFFSET 8.8614 0.775009 2.4612
                  CHANNELS 3 Zrotation Xrotation Yrotation
                  JOINT LeftHandIndex2
                  {
                    OFFSET 3.3146 -0.808304 0.5841
                    CHANNELS 3 Zrotation Xrotation Yrotation
                    JOINT LeftHandIndex3
                    {
                      OFFSET 2.2628 -0.552002 0.3989
                      CHANNELS 3 Zrotation Xrotation Yrotation
                      End Site
                      {
                        OFFSET 1.6102 -0.4807 0.2612
                      }
                    }
                  }
                }
                JOINT LeftHandMiddle1
                {
                  OFFSET 8.9937 0.895004 0.2143
                  CHANNELS 3 Zrotation Xrotation Yrotation
                  JOINT LeftHandMiddle2
                  {
                    OFFSET 4.0984 0.0113983 -0.0242
                    CHANNELS 3 Zrotation Xrotation Yrotation
                    JOINT LeftHandMiddle3
                    {
                      OFFSET 2.2716 0.00689697 -0.0138001
                      CHANNELS 3 Zrotation Xrotation Yrotation
                      End Site
                      {
                        OFFSET 2.0404 -0.1441 0.0027
                      }
                    }
                  }
                }
                JOINT LeftHandRing1
                {
                  OFFSET 8.5234 0.597198 -2.0164
                  CHANNELS 3 Zrotation Xrotation Yrotation
                  JOINT LeftHandRing2
                  {
                    OFFSET 3.7188 -0.188293 -0.2328
                    CHANNELS 3 Zrotation Xrotation Yrotation
                    JOINT LeftHandRing3
                    {
                      OFFSET 2.1191 -0.106598 -0.1332
                      CHANNELS 3 Zrotation Xrotation Yrotation
                      End Site
                      {
                        OFFSET 1.8737 -0.2304 -0.0886
                      }
                    }
                  }
                }
                JOINT LeftHandPinky1
                {
                  OFFSET 7.9094 -0.601089 -3.4825
                  CHANNELS 3 Zrotation Xrotation Yrotation
                  JOINT LeftHandPinky2
                  {
                    OFFSET 2.2874 -0.477005 -0.6314
                    CHANNELS 3 Zrotation Xrotation Yrotation
                    JOINT LeftHandPinky3
                    {
                      OFFSET 1.6774 -0.349396 -0.4633
                      CHANNELS 3 Zrotation Xrotation Yrotation
                      End Site
                      {
                        OFFSET 1.4888 -0.4091 -0.3416
                      }
                    }
                  }
                }
                JOINT LeftHandThumb1
                {
                  OFFSET 1.833 -1.3875 1.3896
                  CHANNELS 3 Zrotation Xrotation Yrotation
                  JOINT LeftHandThumb2
                  {
                    OFFSET 3.4129 -1.121 2.5732
                    CHANNELS 3 Zrotation Xrotation Yrotation
                    JOINT LeftHandThumb3
                    {
                      OFFSET 2.2474 -0.804199 1.6192
                      CHANNELS 3 Zrotation Xrotation Yrotation
                      End Site
                      {
                        OFFSET 1.6527 -0.5689 1.1317
                      }
                    }
                  }
                }
              }
            }
          }
        }
        JOINT RightShoulder
        {
          OFFSET -2.2086 21.1115 7.2329
          CHANNELS 3 Zrotation Xrotation Yrotation
          JOINT RightArm
          {
            OFFSET -13.1216 3.0287 -4.9007
            CHANNELS 3 Zrotation Xrotation Yrotation
            JOINT RightForeArm
            {
              OFFSET -27.4081 -0.0973053 -0.2375
              CHANNELS 3 Zrotation Xrotation Yrotation
              JOINT RightHand
              {
                OFFSET -22.8641 0.0664063 -0.1369
                CHANNELS 3 Zrotation Xrotation Yrotation
                JOINT RightHandIndex1
                {
                  OFFSET -8.8614 0.774994 2.4612
                  CHANNELS 3 Zrotation Xrotation Yrotation
                  JOINT RightHandIndex2
                  {
                    OFFSET -3.3146 -0.808304 0.5841
                    CHANNELS 3 Zrotation Xrotation Yrotation
                    JOINT RightHandIndex3
                    {
                      OFFSET -2.2628 -0.552002 0.3989
                      CHANNELS 3 Zrotation Xrotation Yrotation
                      End Site
                      {
                        OFFSET -1.6102 -0.4807 0.2612
                      }
                    }
                  }
                }
                JOINT RightHandMiddle1
                {
                  OFFSET -8.9937 0.894989 0.2143
                  CHANNELS 3 Zrotation Xrotation Yrotation
                  JOINT RightHandMiddle2
                  {
                    OFFSET -4.0984 0.0113983 -0.0242
                    CHANNELS 3 Zrotation Xrotation Yrotation
                    JOINT RightHandMiddle3
                    {
                      OFFSET -2.2716 0.00691223 -0.0138001
                      CHANNELS 3 Zrotation Xrotation Yrotation
                      End Site
                      {
                        OFFSET -2.0404 -0.1441 0.0027
                      }
                    }
                  }
                }
                JOINT RightHandRing1
                {
                  OFFSET -8.5234 0.597198 -2.0164
                  CHANNELS 3 Zrotation Xrotation Yrotation
                  JOINT RightHandRing2
                  {
                    OFFSET -3.7188 -0.188309 -0.2328
                    CHANNELS 3 Zrotation Xrotation Yrotation
                    JOINT RightHandRing3
                    {
                      OFFSET -2.1191 -0.106598 -0.1332
                      CHANNELS 3 Zrotation Xrotation Yrotation
                      End Site
                      {
                        OFFSET -1.8737 -0.2304 -0.0886
                      }
                    }
                  }
                }
                JOINT RightHandPinky1
                {
                  OFFSET -7.9094 -0.601105 -3.4825
                  CHANNELS 3 Zrotation Xrotation Yrotation
                  JOINT RightHandPinky2
                  {
                    OFFSET -2.2874 -0.477005 -0.6314
                    CHANNELS 3 Zrotation Xrotation Yrotation
                    JOINT RightHandPinky3
                    {
                      OFFSET -1.6774 -0.349396 -0.4633
                      CHANNELS 3 Zrotation Xrotation Yrotation
                      End Site
                      {
                        OFFSET -1.4888 -0.4091 -0.3416
                      }
                    }
                  }
                }
                JOINT RightHandThumb1
                {
                  OFFSET -1.833 -1.38751 1.3896
                  CHANNELS 3 Zrotation Xrotation Yrotation
                  JOINT RightHandThumb2
                  {
                    OFFSET -3.41299 -1.12099 2.5732
                    CHANNELS 3 Zrotation Xrotation Yrotation
                    JOINT RightHandThumb3
                    {
                      OFFSET -2.24741 -0.804108 1.6192
                      CHANNELS 3 Zrotation Xrotation Yrotation
                      End Site
                      {
                        OFFSET -1.6527 -0.5689 1.1317
                      }
                    }
                  }
                }
              }
            }
          }
        }
      }
    }
  }
  JOINT RightUpLeg
  {
    OFFSET -9.1966 3.8861 -0.7581
    CHANNELS 3 Zrotation Xrotation Yrotation
    JOINT RightLeg
    {
      OFFSET -0.7359 -41.0265 0
      CHANNELS 3 Zrotation Xrotation Yrotation
      JOINT RightFoot
      {
        OFFSET 0 -40.2855 0
        CHANNELS 3 Zrotation Xrotation Yrotation
        JOINT RightToeBase
        {
          OFFSET 0 -5.6122 11.7359
          CHANNELS 3 Zrotation Xrotation Yrotation
          End Site
          {
            OFFSET 0 0 7.8731
          }
        }
      }
    }
  }
  JOINT LeftUpLeg
  {
    OFFSET 9.1965 3.8864 -0.7581
    CHANNELS 3 Zrotation Xrotation Yrotation
    JOINT LeftLeg
    {
      OFFSET 0.7359 -41.0268 0
      CHANNELS 3 Zrotation Xrotation Yrotation
      JOINT LeftFoot
      {
        OFFSET 0 -40.2855 0
        CHANNELS 3 Zrotation Xrotation Yrotation
        JOINT LeftToeBase
        {
          OFFSET 0 -5.6122 11.7359
          CHANNELS 3 Zrotation Xrotation Yrotation
          End Site
          {
            OFFSET 0 0 7.8731
          }
        }
      }
    }
  }
}
MOTION
Frames:	4
Frame Time:	0.0333333
2.05108 -0.791422 -50.3818 90.1445 -87.3629 0.137961 -2.99564 -0.730844 -0.945074 -6.0036 -1.4112 -1.92728 -6.00362 -1.41121 -1.92727 -8.38622 6.5706 5.54369 -1.1985 -4.60328 11.8292 -2.11167 -14.2058 -1.54041 -69.6814 -24.3889 -30.9611 -53.4781 6.21324 -10.9468 -42.3872 -3.65759 -4.04834 1.95046e-006 -4.95376e-007 8.17909e-007 -5.90738e-007 4.03432e-006 -7.08806e-008 3.17877e-007 -3.56154e-006 -5.83117e-007 1.95046e-006 -4.95376e-007 8.17909e-007 -0.0146462 -8.29417e-005 5.34263e-006 3.1803e-007 -3.56147e-006 -5.83572e-007 1.95046e-006 -4.95376e-007 8.17909e-007 -0.0188632 -0.00118247 6.10939e-005 3.18067e-007 -3.56144e-006 -5.83707e-007 1.95046e-006 -4.95376e-007 8.17909e-007 -0.0122934 -0.00325195 0.000677701 3.17968e-007 -3.56145e-006 -5.83515e-007 1.95046e-006 -4.95376e-007 8.17909e-007 -5.90738e-007 4.03432e-006 -7.08806e-008 3.17877e-007 -3.56154e-006 -5.83117e-007 21.2856 5.01167 6.88326 59.7435 -3.43788 23.7181 74.1791 -37.6743 71.5588 71.7937 14.0843 -30.0721 -1.53756e-007 -3.29725e-007 -5.26761e-007 -1.53756e-007 -3.29725e-007 -5.26761e-007 -1.53756e-007 -3.29725e-007 -5.26761e-007 -1.53756e-007 -3.29725e-007 -5.26761e-007 0.0149543 -9.47596e-005 8.52234e-007 -1.54965e-006 1.76595e-007 -2.92889e-007 -1.53756e-007 -3.29725e-007 -5.26761e-007 0.0189437 -0.00118881 -5.69557e-005 -1.53764e-007 -3.29812e-007 -5.26705e-007 -1.53756e-007 -3.29725e-007 -5.26761e-007 0.0122944 -0.00325057 -0.000677831 -1.53771e-007 -3.29782e-007 -5.26721e-007 -1.53756e-007 -3.29725e-007 -5.26761e-007 -1.53756e-007 -3.29725e-007 -5.26761e-007 -1.53756e-007 -3.29725e-007 -5.26761e-007 9.6343 -4.72509 -16.6429 -80.2176 62.6546 53.8444 12.5338 8.16982 5.97625 -2.98177e-016 0 3.18055e-015 15.5474 -23.2842 15.9031 -61.3587 43.0558 38.8767 15.9604 20.9287 4.92422 -4.93517e-006 2.34946e-006 -2.74646e-006 
2.22385 -0.791912 -50.3447 90.1094 -86.7094 0.103251 -3.00052 -0.941095 -0.947566 -6.01737 -1.83113 -1.94344 -6.01733 -1.83115 -1.94345 -8.40445 6.14818 5.6339 -1.22083 -4.75254 12.2034 -2.3075 -13.8464 -1.54624 -69.6814 -24.3889 -30.9611 -53.4781 6.21323 -10.9468 -42.3856 -3.63925 -3.84507 -1.59295e-006 -2.48067e-007 -5.16086e-006 -1.31987e-006 -7.21313e-007 -4.50729e-006 -8.19228e-007 1.41974e-006 -1.96072e-006 -1.59295e-006 -2.48067e-007 -5.16086e-006 -0.0146419 -8.50477e-005 -6.82393e-006 -8.19252e-007 1.41999e-006 -1.96054e-006 -1.59295e-006 -2.48067e-007 -5.16086e-006 -0.0187584 -0.00117602 5.14064e-005 -3.21065e-006 -3.16894e-007 -1.99567e-006 -1.59295e-006 -2.48067e-007 -5.16086e-006 -0.0123062 -0.00325609 0.000676042 -8.19294e-007 1.41995e-006 -1.96055e-006 -1.59295e-006 -2.48067e-007 -5.16086e-006 -1.31987e-006 -7.21313e-007 -4.50729e-006 -8.19228e-007 1.41974e-006 -1.96072e-006 21.2855 5.01162 6.88324 59.7435 -3.43787 23.7181 74.1792 -37.6743 71.5588 71.7937 14.0843 -30.0721 -3.18055e-015 -3.18055e-015 -0 1.01591e-007 2.20622e-007 3.50957e-007 -5.07957e-008 -1.10311e-007 -1.75478e-007 -3.18055e-015 -3.18055e-015 -0 0.0150134 -9.09957e-005 -5.00615e-007 -5.07964e-008 -1.10334e-007 -1.75464e-007 -3.18055e-015 -3.18055e-015 -0 0.0189694 -0.00119068 -5.82883e-005 -5.07982e-008 -1.1034e-007 -1.7546e-007 -3.18055e-015 -3.18055e-015 -0 0.0122414 -0.003244 -0.000674158 -5.08005e-008 -1.1033e-007 -1.75465e-007 -3.18055e-015 -3.18055e-015 -0 1.01591e-007 2.20622e-007 3.50957e-007 -5.07957e-008 -1.10311e-007 -1.75478e-007 9.66992 -5.5523 -16.5465 -80.7098 62.6557 54.2778 12.5367 8.16582 5.96921 1.05796e-007 -1.20056e-006 6.3184e-008 15.763 -23.9042 16.2966 -61.5068 42.975 38.9151 16.175 21.046 4.82647 -1.0064e-005 -5.33681e-007 4.10798e-006 
2.397 -0.792423 -50.3086 90.086 -86.056 0.0802816 -3.00549 -1.1513 -0.950112 -6.03139 -2.25105 -1.95978 -6.03137 -2.25106 -1.9598 -8.42146 5.72658 5.7239 -1.2422 -4.90204 12.5778 -2.50272 -13.4869 -1.55074 -69.6814 -24.3889 -30.9611 -53.4781 6.21323 -10.9468 -42.384 -3.6209 -3.64181 3.19276e-007 -3.56004e-006 -5.88592e-007 -8.65839e-007 4.50749e-006 -7.17707e-007 3.19276e-007 -3.56004e-006 -5.88592e-007 3.19276e-007 -3.56004e-006 -5.88592e-007 -0.0146178 -8.61378e-005 -1.48593e-006 3.19429e-007 -3.55997e-006 -5.89047e-007 3.19276e-007 -3.56004e-006 -5.88592e-007 -0.0187756 -0.00117192 5.64025e-005 3.19466e-007 -3.55994e-006 -5.8918e-007 3.19276e-007 -3.56004e-006 -5.88592e-007 -0.0122811 -0.00324435 0.000678903 3.19367e-007 -3.55995e-006 -5.8899e-007 3.19276e-007 -3.56004e-006 -5.88592e-007 -8.65839e-007 4.50749e-006 -7.17707e-007 3.19276e-007 -3.56004e-006 -5.88592e-007 21.2856 5.01168 6.88323 59.7435 -3.43789 23.7181 74.1791 -37.6743 71.5588 71.7937 14.0843 -30.0721 -5.66208e-006 -2.26404e-007 1.43551e-006 2.0136e-007 4.42851e-007 7.01468e-007 -7.22913e-006 -2.69644e-008 1.30132e-006 -5.66208e-006 -2.26404e-007 1.43551e-006 0.0150644 -9.04662e-005 -4.31478e-007 -7.23071e-006 -2.67839e-008 1.30133e-006 -5.66208e-006 -2.26404e-007 1.43551e-006 0.0190361 -0.00119097 -6.16416e-005 -7.23112e-006 -2.66269e-008 1.3014e-006 -5.66208e-006 -2.26404e-007 1.43551e-006 0.0122662 -0.00324408 -0.000677216 -7.23038e-006 -2.65269e-008 1.3016e-006 -5.66208e-006 -2.26404e-007 1.43551e-006 2.0136e-007 4.42851e-007 7.01468e-007 -7.22913e-006 -2.69644e-008 1.30132e-006 9.70723 -6.37875 -16.4496 -81.2008 62.6549 54.7099 12.5397 8.16188 5.96216 1.88845e-015 7.95139e-016 3.18055e-015 15.9843 -24.5226 16.6945 -61.6543 42.8941 38.9529 16.3899 21.1632 4.72819 -8.21461e-006 1.09628e-006 1.08841e-006 
2.57052 -0.792956 -50.2733 90.0692 -85.4028 0.0638354 -3.01045 -1.3615 -0.952624 -6.04553 -2.67088 -1.97628 -6.04556 -2.67088 -1.97628 -8.43797 5.3041 5.81373 -1.26263 -5.05177 12.9524 -2.69769 -13.1275 -1.55399 -69.6814 -24.3889 -30.9611 -53.4781 6.21322 -10.9468 -42.3825 -3.60254 -3.43857 -2.15562e-006 -2.10572e-006 -2.71258e-006 7.27504e-007 4.74757e-006 4.44638e-006 5.49525e-006 -9.28234e-007 -1.5351e-006 -2.15562e-006 -2.10572e-006 -2.71258e-006 -0.0146503 -8.44067e-005 4.11692e-006 3.88754e-006 -3.98198e-006 -2.94275e-006 -2.15562e-006 -2.10572e-006 -2.71258e-006 -0.0187978 -0.00117076 6.28658e-005 5.49462e-006 -9.28023e-007 -1.53531e-006 -2.15562e-006 -2.10572e-006 -2.71258e-006 -0.0122907 -0.00325114 0.000681105 3.88728e-006 -3.98186e-006 -2.94282e-006 -2.15562e-006 -2.10572e-006 -2.71258e-006 7.27504e-007 4.74757e-006 4.44638e-006 5.49525e-006 -9.28234e-007 -1.5351e-006 21.2856 5.01167 6.88324 59.7435 -3.43789 23.7181 74.1791 -37.6743 71.5588 71.7937 14.0843 -30.0721 -1.49655e-007 -3.33341e-007 -5.25758e-007 -2.49425e-008 -5.55568e-008 -8.76263e-008 -1.49655e-007 -3.33341e-007 -5.25758e-007 -1.49655e-007 -3.33341e-007 -5.25758e-007 0.0149713 -8.90274e-005 -4.11401e-007 -1.49657e-007 -3.33409e-007 -5.25714e-007 -1.49655e-007 -3.33341e-007 -5.25758e-007 0.0190224 -0.00119306 -5.80095e-005 -1.49662e-007 -3.33428e-007 -5.25701e-007 -1.49655e-007 -3.33341e-007 -5.25758e-007 0.0123091 -0.00325822 -0.000679104 -1.49669e-007 -3.33398e-007 -5.25717e-007 -1.49655e-007 -3.33341e-007 -5.25758e-007 -2.49425e-008 -5.55568e-008 -8.76263e-008 -1.49655e-007 -3.33341e-007 -5.25758e-007 9.74616 -7.20496 -16.3519 -81.692 62.6525 55.1422 12.5427 8.15794 5.95513 -1.2921e-015 -7.95139e-016 -0 16.2113 -25.1394 17.0969 -61.8012 42.813 38.9901 16.6051 21.2799 4.6294 -1.59963e-005 -8.71459e-007 4.56232e-006 
